<mxfile host="app.diagrams.net" agent="Mozilla/5.0 (Windows NT 10.0; Win64; x64) AppleWebKit/537.36 (KHTML, like Gecko) Chrome/131.0.0.0 Safari/537.36" version="24.8.8">
  <diagram name="1 oldal" id="F84CMAl41vV3lFAe94_o">
    <mxGraphModel dx="1646" dy="514" grid="1" gridSize="10" guides="1" tooltips="1" connect="1" arrows="1" fold="1" page="1" pageScale="1" pageWidth="827" pageHeight="1169" math="0" shadow="0">
      <root>
        <mxCell id="0" />
        <mxCell id="1" parent="0" />
        <mxCell id="Hs7LZAgPFVkhUPFHDNcM-3" style="edgeStyle=orthogonalEdgeStyle;rounded=0;orthogonalLoop=1;jettySize=auto;html=1;entryX=0;entryY=0.5;entryDx=0;entryDy=0;" edge="1" parent="1" source="Hs7LZAgPFVkhUPFHDNcM-1" target="Hs7LZAgPFVkhUPFHDNcM-6">
          <mxGeometry relative="1" as="geometry">
            <mxPoint x="259.9999999999998" y="70" as="targetPoint" />
          </mxGeometry>
        </mxCell>
        <mxCell id="Hs7LZAgPFVkhUPFHDNcM-1" value="Start()" style="rounded=1;whiteSpace=wrap;html=1;fillColor=#d5e8d4;strokeColor=#82b366;" vertex="1" parent="1">
          <mxGeometry x="40" y="40" width="120" height="60" as="geometry" />
        </mxCell>
        <mxCell id="Hs7LZAgPFVkhUPFHDNcM-2" value="A &quot;Start()&quot; function meghívásakor, az összes menü láthatatlan lesz, és elindul egy vissza számlálás 3-tól. Miután eléri a 0-át a játék elindul." style="whiteSpace=wrap;html=1;aspect=fixed;align=left;verticalAlign=top;spacingTop=5;spacingLeft=5;spacingRight=5;fillColor=#d5e8d4;strokeColor=#82b366;" vertex="1" parent="1">
          <mxGeometry x="40" y="110" width="140" height="140" as="geometry" />
        </mxCell>
        <mxCell id="Hs7LZAgPFVkhUPFHDNcM-19" style="edgeStyle=orthogonalEdgeStyle;rounded=0;orthogonalLoop=1;jettySize=auto;html=1;" edge="1" parent="1" source="Hs7LZAgPFVkhUPFHDNcM-6" target="Hs7LZAgPFVkhUPFHDNcM-18">
          <mxGeometry relative="1" as="geometry" />
        </mxCell>
        <mxCell id="Hs7LZAgPFVkhUPFHDNcM-6" value="_process()" style="rounded=1;whiteSpace=wrap;html=1;fillColor=#d5e8d4;strokeColor=#82b366;" vertex="1" parent="1">
          <mxGeometry x="260" y="40" width="120" height="60" as="geometry" />
        </mxCell>
        <mxCell id="Hs7LZAgPFVkhUPFHDNcM-7" value="A &quot;_process()&quot; function minden egyes animációs képkockában lefut. A játék fő logikája itt van." style="whiteSpace=wrap;html=1;aspect=fixed;align=left;verticalAlign=top;spacingTop=5;spacingLeft=5;spacingRight=5;fillColor=#d5e8d4;strokeColor=#82b366;" vertex="1" parent="1">
          <mxGeometry x="260" y="110" width="130" height="130" as="geometry" />
        </mxCell>
        <mxCell id="Hs7LZAgPFVkhUPFHDNcM-10" value="Object Class" style="ellipse;whiteSpace=wrap;html=1;fillColor=#ffe6cc;strokeColor=#d79b00;" vertex="1" parent="1">
          <mxGeometry x="-745" y="20" width="120" height="80" as="geometry" />
        </mxCell>
        <mxCell id="Hs7LZAgPFVkhUPFHDNcM-11" value="Az &quot;Object&quot; osztály a különféle játék elemek főosztálya.&lt;br&gt;&lt;b&gt;Attribútumai:&lt;/b&gt;&lt;div&gt;- Megjelenített kép (Image)&lt;br&gt;&lt;div&gt;- Pozíció (Vec2)&lt;/div&gt;&lt;div&gt;- Forgás (float)&lt;br&gt;- Sebesség (Vec2)&lt;/div&gt;&lt;div&gt;- Gyorsulás (Vec2)&lt;/div&gt;&lt;div&gt;&lt;b&gt;Functionjei:&lt;/b&gt;&lt;/div&gt;&lt;div&gt;- &lt;i&gt;Move()&lt;/i&gt; : void -&amp;gt; mozgás logika&lt;br&gt;&lt;b&gt;Constructor:&lt;/b&gt;&lt;/div&gt;&lt;/div&gt;&lt;div&gt;- Megjelenített kép&lt;/div&gt;&lt;div&gt;- Képi pozíció (X, Y) pixelben&lt;/div&gt;" style="whiteSpace=wrap;html=1;aspect=fixed;align=left;verticalAlign=top;spacingTop=5;spacingLeft=5;spacingRight=5;fillColor=#ffe6cc;strokeColor=#d79b00;" vertex="1" parent="1">
          <mxGeometry x="-790" y="110" width="210" height="210" as="geometry" />
        </mxCell>
        <mxCell id="Hs7LZAgPFVkhUPFHDNcM-12" value="Collider Class" style="ellipse;whiteSpace=wrap;html=1;fillColor=#ffe6cc;strokeColor=#d79b00;" vertex="1" parent="1">
          <mxGeometry x="-486" y="22.5" width="120" height="80" as="geometry" />
        </mxCell>
        <mxCell id="Hs7LZAgPFVkhUPFHDNcM-13" value="Az &quot;Object&quot; alosztálya.&lt;div&gt;A &quot;Collider&quot; osztály a különféle játék elemek összeütközését nézi. Csak négyzet alakú lehet.&amp;nbsp;&lt;br&gt;&lt;b&gt;Attribútumai:&lt;/b&gt;&lt;div&gt;&lt;div&gt;- Mérete (Vec2)&lt;/div&gt;&lt;div&gt;&lt;b&gt;Functionjei:&lt;/b&gt;&lt;/div&gt;&lt;div&gt;- &lt;i&gt;isColliding(collider)&lt;/i&gt; : bool -&amp;gt; ütközési logika&lt;br&gt;Visszaadja, hogy a megadott colliderrel ütközik-e&lt;br&gt;&lt;/div&gt;&lt;/div&gt;&lt;/div&gt;&lt;div&gt;- &lt;i&gt;debugDraw() &lt;/i&gt;: void -&amp;gt; egy zöld körvonal ad a játék futása közben, ha ütközik valamivel, piros körvonallal.&lt;/div&gt;&lt;div&gt;- collidingWith(collider) : void -&amp;gt; akkor fut le amikor a megadott collider ütközik épp&lt;/div&gt;&lt;div&gt;&lt;b&gt;Constructor:&lt;/b&gt;&lt;/div&gt;&lt;div&gt;- &lt;i&gt;méret &lt;/i&gt;(hossz, magasság) pixelben&lt;/div&gt;" style="whiteSpace=wrap;html=1;aspect=fixed;align=left;verticalAlign=top;spacingTop=5;spacingLeft=5;spacingRight=5;fillColor=#ffe6cc;strokeColor=#d79b00;" vertex="1" parent="1">
          <mxGeometry x="-556" y="110" width="260" height="260" as="geometry" />
        </mxCell>
        <mxCell id="Hs7LZAgPFVkhUPFHDNcM-14" value="Player Class" style="ellipse;whiteSpace=wrap;html=1;fillColor=#ffe6cc;strokeColor=#d79b00;" vertex="1" parent="1">
          <mxGeometry x="-225" y="20" width="120" height="80" as="geometry" />
        </mxCell>
        <mxCell id="Hs7LZAgPFVkhUPFHDNcM-15" value="Az &quot;Object&quot; alosztálya.&lt;div&gt;A &quot;Player&quot; osztály a játékos logikáját, tartalmazza.&amp;nbsp;&lt;br&gt;&lt;b&gt;Attribútumai:&lt;/b&gt;&lt;div&gt;&lt;div&gt;- &lt;i&gt;gravity (float)&lt;/i&gt; -&amp;gt; megadja a játkos mekkora gyorsulással, fog esni lefele&lt;br&gt;- &lt;i&gt;jumpForce (float)&lt;/i&gt; -&amp;gt; megadja a játékos mekkora erővel ugorjon&lt;/div&gt;&lt;div&gt;&lt;span style=&quot;background-color: initial;&quot;&gt;- &lt;i&gt;isFalling (bool)&lt;/i&gt; -&amp;gt; megadja, hogy a játékos éppen zuhan-e&amp;nbsp;&lt;/span&gt;&lt;/div&gt;&lt;div&gt;&lt;span style=&quot;background-color: initial;&quot;&gt;- isDead (bool) -&amp;gt; megadja, hogy a játékos még él-e&lt;/span&gt;&lt;/div&gt;&lt;div&gt;&lt;b style=&quot;background-color: initial;&quot;&gt;Functionjei:&lt;/b&gt;&lt;/div&gt;&lt;div&gt;- &lt;i&gt;_input() &lt;/i&gt;: void -&amp;gt; a játékos billentyűzet gomb nyomásainak ad logikát&lt;br&gt;&lt;/div&gt;&lt;/div&gt;&lt;/div&gt;" style="whiteSpace=wrap;html=1;aspect=fixed;align=left;verticalAlign=top;spacingTop=5;spacingLeft=5;spacingRight=5;fillColor=#ffe6cc;strokeColor=#d79b00;" vertex="1" parent="1">
          <mxGeometry x="-280" y="110" width="230" height="230" as="geometry" />
        </mxCell>
        <mxCell id="Hs7LZAgPFVkhUPFHDNcM-16" value="Vector2 Class" style="ellipse;whiteSpace=wrap;html=1;fillColor=#ffe6cc;strokeColor=#d79b00;" vertex="1" parent="1">
          <mxGeometry x="-486" y="387.5" width="120" height="80" as="geometry" />
        </mxCell>
        <mxCell id="Hs7LZAgPFVkhUPFHDNcM-17" value="Az &quot;Vector2&quot; osztály egy 2 koordinátájú vektor&lt;span style=&quot;background-color: initial;&quot;&gt;.&amp;nbsp;&lt;/span&gt;&lt;div&gt;&lt;b&gt;Attribútumai:&lt;/b&gt;&lt;div&gt;&lt;div&gt;- &lt;i&gt;x (int)&lt;br&gt;- y (int)&lt;/i&gt;&lt;/div&gt;&lt;div&gt;&lt;br&gt;&lt;/div&gt;&lt;/div&gt;&lt;/div&gt;&lt;div&gt;&lt;b&gt;Constructor:&lt;/b&gt;&lt;/div&gt;&lt;div&gt;- poziciója (x, y) pixelben&lt;/div&gt;" style="whiteSpace=wrap;html=1;aspect=fixed;align=left;verticalAlign=top;spacingTop=5;spacingLeft=5;spacingRight=5;fillColor=#ffe6cc;strokeColor=#d79b00;" vertex="1" parent="1">
          <mxGeometry x="-503.5" y="482.5" width="155" height="155" as="geometry" />
        </mxCell>
        <mxCell id="Hs7LZAgPFVkhUPFHDNcM-21" style="edgeStyle=orthogonalEdgeStyle;rounded=0;orthogonalLoop=1;jettySize=auto;html=1;entryX=0;entryY=0.5;entryDx=0;entryDy=0;exitX=0.88;exitY=0.507;exitDx=0;exitDy=0;exitPerimeter=0;" edge="1" parent="1" source="Hs7LZAgPFVkhUPFHDNcM-18" target="Hs7LZAgPFVkhUPFHDNcM-20">
          <mxGeometry relative="1" as="geometry" />
        </mxCell>
        <mxCell id="Hs7LZAgPFVkhUPFHDNcM-18" value="futás" style="triangle;whiteSpace=wrap;html=1;align=left;perimeterSpacing=0;rounded=1;spacingLeft=5;" vertex="1" parent="1">
          <mxGeometry x="491.5" y="30" width="60" height="80" as="geometry" />
        </mxCell>
        <mxCell id="Hs7LZAgPFVkhUPFHDNcM-23" value="" style="edgeStyle=orthogonalEdgeStyle;rounded=0;orthogonalLoop=1;jettySize=auto;html=1;entryX=0.5;entryY=0;entryDx=0;entryDy=0;" edge="1" parent="1" source="Hs7LZAgPFVkhUPFHDNcM-20" target="Hs7LZAgPFVkhUPFHDNcM-22">
          <mxGeometry relative="1" as="geometry" />
        </mxCell>
        <mxCell id="Hs7LZAgPFVkhUPFHDNcM-20" value="Ameddig a játékos életben van" style="rhombus;whiteSpace=wrap;html=1;fillColor=#1ba1e2;fontColor=#ffffff;strokeColor=#006EAF;" vertex="1" parent="1">
          <mxGeometry x="603" y="22.5" width="95" height="95" as="geometry" />
        </mxCell>
        <mxCell id="Hs7LZAgPFVkhUPFHDNcM-22" value="Az összes meglévő &quot;Object&quot;-nek meghívja a &quot;move()&quot; functionjét." style="shape=parallelogram;perimeter=parallelogramPerimeter;whiteSpace=wrap;html=1;fixedSize=1;" vertex="1" parent="1">
          <mxGeometry x="545.75" y="150" width="209.5" height="110" as="geometry" />
        </mxCell>
        <mxCell id="Hs7LZAgPFVkhUPFHDNcM-24" value="Restart()" style="rounded=1;whiteSpace=wrap;html=1;fillColor=#d5e8d4;strokeColor=#82b366;" vertex="1" parent="1">
          <mxGeometry x="40" y="272.5" width="120" height="60" as="geometry" />
        </mxCell>
        <mxCell id="Hs7LZAgPFVkhUPFHDNcM-25" value="A &quot;&lt;span style=&quot;text-align: center;&quot;&gt;Restart()&quot;&lt;/span&gt;&amp;nbsp;function meghívásakor, a játék újra indul." style="whiteSpace=wrap;html=1;aspect=fixed;align=left;verticalAlign=top;spacingTop=5;spacingLeft=5;spacingRight=5;fillColor=#d5e8d4;strokeColor=#82b366;" vertex="1" parent="1">
          <mxGeometry x="40" y="342.5" width="140" height="140" as="geometry" />
        </mxCell>
        <mxCell id="Hs7LZAgPFVkhUPFHDNcM-29" value="AddToScene(object)" style="rounded=1;whiteSpace=wrap;html=1;fillColor=#d5e8d4;strokeColor=#82b366;" vertex="1" parent="1">
          <mxGeometry x="260" y="272.5" width="140" height="60" as="geometry" />
        </mxCell>
        <mxCell id="Hs7LZAgPFVkhUPFHDNcM-30" value="Az &quot;&lt;span style=&quot;text-align: center;&quot;&gt;AddToScene&lt;/span&gt;&lt;span style=&quot;text-align: center;&quot;&gt;()&quot;&lt;/span&gt;&amp;nbsp;function meghívásakor, egy új html elementet ad a játékhoz. Belerakja a játék összes elemét tartalmazó listába.&lt;div&gt;Létrehoz egy &quot;div&quot;-et amit hozzá ad a játék tárolóhoz.&lt;br&gt;A &quot;div&quot;-nek az osztálynak megfelelő class ad neki.&lt;/div&gt;" style="whiteSpace=wrap;html=1;aspect=fixed;align=left;verticalAlign=top;spacingTop=5;spacingLeft=5;spacingRight=5;fillColor=#d5e8d4;strokeColor=#82b366;" vertex="1" parent="1">
          <mxGeometry x="250" y="342.5" width="160" height="160" as="geometry" />
        </mxCell>
        <mxCell id="Hs7LZAgPFVkhUPFHDNcM-32" value="Játék elemek &lt;br&gt;DIV-jeinek&lt;br&gt;stílusai" style="shape=hexagon;perimeter=hexagonPerimeter2;whiteSpace=wrap;html=1;fixedSize=1;" vertex="1" parent="1">
          <mxGeometry x="40" y="530" width="120" height="80" as="geometry" />
        </mxCell>
        <mxCell id="Hs7LZAgPFVkhUPFHDNcM-34" value="position: absolute;&lt;br&gt;width: ?px;&lt;br&gt;height: ?px;&amp;nbsp;" style="whiteSpace=wrap;html=1;aspect=fixed;" vertex="1" parent="1">
          <mxGeometry x="20" y="630" width="160" height="160" as="geometry" />
        </mxCell>
      </root>
    </mxGraphModel>
  </diagram>
</mxfile>
